Coordinates
version=1
nRows=19
nColumns=36
inDegrees=yes

Units are S.I. units (second, meters, Newtons, ...)
If the header above contains a line with 'inDegrees', this indicates whether rotational values are in degrees (yes) or radians (no).

endheader
time	pelvis_tilt	pelvis_list	pelvis_rotation	pelvis_tx	pelvis_ty	pelvis_tz	hip_flexion_r	hip_adduction_r	hip_rotation_r	knee_angle_r	knee_angle_r_beta	ankle_angle_r	subtalar_angle_r	mtp_angle_r	hip_flexion_l	hip_adduction_l	hip_rotation_l	knee_angle_l	knee_angle_l_beta	ankle_angle_l	subtalar_angle_l	mtp_angle_l	lumbar_extension	lumbar_bending	lumbar_rotation	arm_flex_r	arm_add_r	arm_rot_r	elbow_flex_r	pro_sup_r	arm_flex_l	arm_add_l	arm_rot_l	elbow_flex_l	pro_sup_l
      2.50000000	    -23.77854435	     -1.79494151	      4.88634465	      1.07780113	      0.76393151	     -0.39450558	     66.89663883	     -0.90110301	      3.19108792	     83.92352869	      1.46474190	     42.76936119	     -9.67161069	     -7.49999987	     69.87825998	     -5.97415796	      2.05004881	     82.38753062	      1.43793367	     38.10148316	     -5.20314240	     -7.49999987	     -3.90603736	      0.73358735	      6.12904336	     60.08278021	    -24.75106683	     10.16001224	     69.11233440	     77.14090772	    244.68128201	   -161.01277047	    199.08623385	     71.34739278	     93.73122762
      2.51666670	    -23.71147782	     -1.52145104	      4.87607446	      1.08489775	      0.77327351	     -0.39726353	     65.94216391	     -1.64264469	      3.11197968	     82.22649829	      1.43512313	     41.78699162	     -9.36525322	     -7.49999987	     68.44241719	     -5.60594131	      1.48391273	     80.25894549	      1.40078285	     36.40598385	     -6.49393008	     -7.49999987	     -2.34946981	      0.40659934	      5.06844609	     69.66666254	    -24.30980122	     15.72055092	     72.74484676	     79.38843465	    254.50955509	   -158.55331040	    203.88820940	     76.38438076	     92.71142583
      2.53333330	    -23.21154380	     -1.57045442	      4.96546846	      1.10286841	      0.79279001	     -0.39623832	     63.23293431	     -2.28680708	      2.54995011	     79.25449090	      1.38325181	     41.01482718	     -8.67973136	     -7.49999987	     65.54009468	     -5.33560597	      1.45643909	     77.09647279	      1.34558729	     34.86966324	     -7.08532257	     -7.49999987	     -0.76381817	      1.37456395	      2.33803580	     78.29653298	    -21.23922740	     20.13079565	     75.50593974	     93.25843458	    259.27072640	   -153.14939414	    203.07787868	     85.39164798	     92.71469483
      2.55000000	    -22.39801562	     -1.33988823	      4.99721488	      1.11576027	      0.81816034	     -0.40278216	     59.31498751	     -3.13785801	      2.14535404	     75.16427720	      1.31186412	     39.58665383	     -8.03444949	     -7.49999987	     61.30225220	     -4.93985565	      1.07943755	     72.72357945	      1.26926591	     33.13792669	     -7.33726401	     -7.49999987	      0.12041757	      0.98708167	      1.47099623	     84.85774001	    -20.66713450	     22.25391966	     80.84502931	     91.85358694	    265.24427664	   -150.67944577	    204.05961107	     90.90821426	     90.38280712
      2.56666670	    -21.03989232	     -1.11410088	      5.02825565	      1.12298374	      0.84265781	     -0.40684421	     54.45604286	     -3.94791804	      1.58487994	     70.03172129	      1.22228412	     37.35980636	     -7.72851461	     -7.49999987	     56.25639343	     -4.57955866	      0.64865948	     67.62692881	      1.18031257	     30.86393981	     -7.70513387	     -7.49999987	      0.70051715	      0.70084006	      0.49016231	     91.89549970	    -19.01627889	     24.69835268	     81.60837177	     91.06817170	    270.32211400	   -151.29953811	    203.18382959	     95.20946797	     88.81360524
      2.58333330	    -19.78179569	     -1.13086720	      5.09254385	      1.13534687	      0.87341207	     -0.41260447	     49.02484719	     -4.61378028	      0.56533103	     63.57884268	      1.10966014	     34.39934198	     -7.48753219	     -7.49999987	     50.91712803	     -4.35352705	      0.43748467	     61.49888945	      1.07335811	     28.01818662	     -7.55040426	     -7.49999987	      1.97662231	      1.31619696	     -0.71228546	     96.26028296	    -15.96606012	     24.48575832	     82.16066073	    100.50526588	    271.10994090	   -149.81370932	    200.47413806	    100.14875304	     94.78874215
      2.60000000	    -18.49161380	     -1.13524875	      4.95262607	      1.14845246	      0.91114088	     -0.40706325	     43.19969392	     -4.94163959	     -0.74901632	     56.07280052	      0.97865499	     30.41910830	     -7.32889566	     -7.49999987	     44.96593430	     -4.45484298	      0.10764436	     54.15021712	      0.94509958	     24.42172007	     -7.37517532	     -7.49999987	      2.35664596	      1.55609062	     -0.68159072	    100.40960072	    -13.79372040	     25.13546674	     82.72651200	     96.74846102	    273.66228772	   -149.78503931	    201.63668309	    101.45146149	     92.25374091
      2.61666670	    -17.23772485	     -1.26975095	      4.71486826	      1.15665898	      0.94860546	     -0.40904152	     37.03774212	     -4.78560819	     -2.06027069	     47.41340731	      0.82752007	     25.17623540	     -7.66280141	     -7.49999987	     38.90109279	     -4.94893245	     -0.92944365	     45.97596604	      0.80243198	     19.98688954	     -6.56386715	     -7.49999987	      2.57983876	      2.04871061	     -0.71657583	    103.22274573	    -12.01157602	     25.39439554	     83.73702999	     99.67266731	    274.39453134	   -148.38406494	    201.45668198	    104.22716162	     96.67853262
      2.63333330	    -14.73044836	     -1.37980403	      4.20290781	      1.17395305	      1.00690445	     -0.41368907	     28.23316367	     -4.13763297	     -3.34649358	     35.81178239	      0.62503351	     18.15908886	     -7.85996484	     -7.49999987	     30.19417087	     -5.61852181	     -2.88308151	     35.04651437	      0.61167707	     13.10010252	     -5.15930335	     -7.49999987	      1.64445349	      2.50514413	     -0.37725755	    102.01679878	    -11.95320878	     25.79034848	     88.24787044	    100.96137883	    271.49497086	   -147.72859598	    200.21128803	    107.64942760	     98.11382772
      2.65000000	    -11.87008916	     -1.47287352	      3.90403174	      1.19773885	      1.06271668	     -0.42610530	     18.45633062	     -3.57567864	     -5.22686970	     22.94920668	      0.40053922	      9.27432258	     -6.17369078	     -7.49999987	     20.61709193	     -5.72687770	     -5.21519592	     23.34253339	      0.40740406	      5.28001139	     -2.45485001	     -7.49999987	      1.03095221	      3.01340347	     -0.26341086	     97.67609370	    -13.16130531	     26.04782962	     93.86703862	     99.48698769	    264.51512308	   -146.61279544	    199.05262351	    111.24233608	     98.49349640
      2.66666670	    -10.45580659	     -1.48832036	      3.81339347	      1.21120845	      1.10937865	     -0.42624575	     12.06939443	     -3.09063960	     -7.50435941	     12.76329351	      0.22276150	     -0.27849297	     -3.63700090	     -7.49999987	     14.14460071	     -5.37128825	     -6.47761674	     14.29383753	      0.24947453	     -1.71557213	      0.20075793	     -7.49999987	      2.24956481	      2.68075654	     -1.59876192	     91.16090460	    -15.36538662	     26.72247399	     99.01233245	     98.30856723	    258.37613330	   -144.42946688	    200.96962546	    111.72854972	     97.16195443
      2.68333330	     -9.86438141	     -1.39117675	      3.37139934	      1.22226569	      1.15243549	     -0.42641206	      8.59456613	     -2.82690229	     -9.29975313	      6.69985790	      0.11693458	     -7.93699760	     -1.91066617	     -7.49999987	     10.22969709	     -4.97084190	     -6.66931079	      8.25594683	      0.14409346	     -7.03440969	      2.42678438	     -7.49999987	      3.90376911	      2.46418889	     -2.77388234	     84.18315662	    -16.47053326	     26.81498384	    103.19984851	    101.28980512	    250.93198269	   -142.42637180	    201.58909978	    111.93288085	    100.24180544
      2.70000000	     -9.37623198	     -1.41277494	      3.21342538	      1.23793588	      1.18977755	     -0.42440693	      6.01949580	     -2.68588925	    -11.56671327	      3.03086807	      0.05289863	    -13.59139021	     -0.69158970	     -7.49999987	      7.48651240	     -4.71147965	     -6.95371880	      4.75082886	      0.08291761	    -10.17409335	      3.86321920	     -7.49999987	      4.97141456	      2.51303775	     -3.38632302	     77.09791503	    -18.11003007	     27.33095699	    108.18297298	     96.36946467	    243.32387664	   -142.01723984	    201.53772418	    111.32762717	     95.95332520
      2.71666670	     -9.24318439	     -1.46251865	      2.83233420	      1.23821192	      1.22574900	     -0.42345858	      4.96812942	     -2.61996822	    -13.80824960	      1.62265398	      0.02832065	    -18.10765272	     -0.41350679	     -7.49999987	      6.34206955	     -4.60041972	     -6.81595078	      3.35338313	      0.05852758	    -13.17373735	      4.50837398	     -7.49999987	      5.72150830	      2.69933539	     -3.94298527	     71.29453654	    -19.45887834	     28.89926745	    111.92530551	     91.24415554	    236.14049294	   -139.84174731	    201.02354602	    112.59353415	     93.08691173
      2.73333330	     -8.64302852	     -1.48138376	      2.69911609	      1.23780980	      1.24088045	     -0.42327059	      3.90112931	     -2.56817917	    -15.43214107	      1.24336795	      0.02170086	    -21.98938968	     -0.88979166	     -7.49999987	      5.40655782	     -4.42039908	     -7.07446625	      3.32555496	      0.05804188	    -15.96128681	      4.68776715	     -7.49999987	      5.71739955	      2.54551650	     -4.16970280	     66.78521240	    -21.26333329	     29.16608108	    113.41775771	     88.23425133	    231.83024072	   -140.24521317	    200.55322037	    111.94770426	     91.04615821
      2.75000000	     -7.97466869	     -1.31346722	      2.50393356	      1.24206698	      1.26309358	     -0.43110292	      3.05831096	     -2.82335703	    -15.57343235	      1.47935464	      0.02581961	    -25.83901345	     -2.17104411	     -7.49999987	      4.73093076	     -3.94890189	     -7.12517276	      4.15172538	      0.07246128	    -18.97383663	      4.78361677	     -7.49999987	      5.39514022	      2.69466579	     -5.08891485	     63.96913464	    -22.79367189	     30.43741057	    112.43923766	     85.43166846	    227.71871679	   -140.06299119	    199.78397581	    111.33282884	     88.33414682
      2.76666670	     -7.00045795	     -1.23248615	      2.65572504	      1.24719441	      1.28630181	     -0.42844270	      2.11472716	     -2.89329471	    -16.52455929	      2.48724567	      0.04341063	    -28.50860978	     -1.62697163	     -7.49999987	      4.05030514	     -3.68669969	     -6.46216755	      5.81516715	      0.10149381	    -21.48397963	      5.15268890	     -7.49999987	      4.53602535	      2.38662678	     -4.09539897	     58.84175072	    -25.10425527	     27.93249264	    113.25184551	     83.91070643	    225.97595737	   -142.42285374	    201.38794958	    108.87533598	     91.53371570
      2.78333330	     -6.29301915	     -1.30710520	      2.99980016	      1.24729361	      1.31478283	     -0.43388171	      1.84871122	     -2.77633349	    -16.90663553	      3.88306033	      0.06777219	    -32.06351169	     -2.79005070	     -7.49999987	      4.01401552	     -3.56165866	     -5.87640169	      7.88080136	      0.13754593	    -24.41255654	      5.29316965	     -7.49999987	      3.76604019	      2.54202286	     -3.74227302	     55.11785341	    -26.22862887	     26.56840626	    112.53278210	     82.21383452	    223.26429127	   -144.10568632	    202.29839174	    106.99643826	     90.71156613
      2.80000000	     -5.97232617	     -1.25256311	      3.07337850	      1.25827826	      1.33273729	     -0.43423153	      1.99453333	     -2.86894598	    -16.69901115	      5.26596272	      0.09190839	    -34.87959760	     -3.30139364	     -7.49999987	      4.10594033	     -3.34603412	     -5.14928897	      9.85172680	      0.17194507	    -26.78612442	      5.98963286	     -7.49999987	      3.59741288	      2.72188700	     -3.28299595	     52.08486652	    -25.94115287	     25.32067185	    111.63121563	     81.00440806	    219.77177126	   -144.99700276	    202.40376744	    106.24260351	     90.12648728
